<?xml version="1.0" standalone="no"?><!DOCTYPE svg PUBLIC "-//W3C//DTD SVG 1.1//EN" "http://www.w3.org/Graphics/SVG/1.1/DTD/svg11.dtd"><svg t="1612607606795" class="icon" viewBox="0 0 1024 1024" version="1.1" xmlns="http://www.w3.org/2000/svg" p-id="1119" xmlns:xlink="http://www.w3.org/1999/xlink" width="200" height="200"><defs><style type="text/css"></style></defs><path d="M533.4 830.2c-112 0-202.6-91.8-206.8-187.4l127.3-124.6-389.7-72.5v454.1l115.9-113.4c17.9 23.3 115.3 173.4 312.5 173.4 254.2 0 211.4-345.5 211.4-345.5s-63 215.9-170.6 215.9z m310.3-592.6C825.8 214.3 728.6 64.2 531.3 64.2c-254.2 0-211.4 345.5-211.4 345.5s62.9-215.9 170.6-215.9c112 0 202.6 91.8 206.8 187.4L570 505.8l389.8 72.6V124.2L843.7 237.6z m0 0" p-id="1120"></path></svg>